<?xml version="1.0" encoding="utf-8"?>
<!-- Generator: Adobe Illustrator 25.3.1, SVG Export Plug-In . SVG Version: 6.00 Build 0)  -->
<svg version="1.1" id="Layer_1" xmlns="http://www.w3.org/2000/svg" xmlns:xlink="http://www.w3.org/1999/xlink" x="0px" y="0px"
	 viewBox="0 0 514 265" style="enable-background:new 0 0 514 265;" xml:space="preserve">
<style type="text/css">
	.st0{fill:#FBC300;}
</style>
<path class="st0" d="M245.5,26.9c31.5,0,14.8-26.9,57-26.9h185.4c19.3,45.7,46.4,145.7,0,159.3c-57.9,17-60.1,24.7-87.5,85.8
	c-21.9,48.9-137.4-3.9-192.4-36.5c-18.6-10.3-60.3-19.2-78.6,27.1c-14.1,35.7-41.8,30.3-63.9,16.5c-13.7-8.6-25.3-20.5-30.2-27.9
	C25.2,208.9,7.9,134.1,0.5,98.6c0.6-69.8,23.3-62.4,34.8-49.8C82.5,78,131.9,86.9,156.5,60C201.5,20,227.5,26.9,245.5,26.9z"/>
</svg>
