<?xml version="1.0" encoding="utf-8"?>
<!-- Generator: Adobe Illustrator 25.3.1, SVG Export Plug-In . SVG Version: 6.00 Build 0)  -->
<svg version="1.1" id="Layer_1" xmlns="http://www.w3.org/2000/svg" xmlns:xlink="http://www.w3.org/1999/xlink" x="0px" y="0px"
	 viewBox="0 0 514 292" style="enable-background:new 0 0 514 292;" xml:space="preserve">
<style type="text/css">
	.st0{fill:#FBC300;}
</style>
<path class="st0" d="M244.2,15.1c35,0,16.4-29.9,63.3-29.9h206c21.5,50.8,51.5,161.9,0,177c-64.4,18.8-66.8,27.4-97.2,95.4
	c-24.3,54.4-152.7-4.4-213.8-40.5c-20.6-11.4-67-21.3-87.3,30.2c-15.7,39.7-46.5,33.7-71,18.3c-15.3-9.6-28.2-22.8-33.6-31
	C-0.6,217.4-19.8,134.2-28,94.8c0.6-77.6,25.9-69.3,38.7-55.3C63.1,72,118,81.8,145.3,51.9C195.3,7.5,224.2,15.1,244.2,15.1z"/>
</svg>
