<svg width="514" height="265" viewBox="0 0 514 265" fill="none" xmlns="http://www.w3.org/2000/svg">
<path d="M245.5 26.8706C276.986 26.8706 260.266 0 302.5 0H487.906C507.22 45.7386 534.26 145.747 487.906 159.314C429.963 176.274 427.777 183.982 400.446 245.139C378.581 294.063 263.06 241.199 208.033 208.65C189.453 198.395 147.721 189.465 129.442 235.787C115.347 271.506 87.6368 266.135 65.5 252.246C51.7507 243.619 40.1514 231.706 35.2995 224.311C25.1686 208.87 7.8855 134.056 0.510295 98.5788C1.06432 28.7689 23.8412 36.1819 35.2995 48.8221C82.528 78.0126 131.899 86.8706 156.5 60C201.5 20 227.461 26.8706 245.5 26.8706Z" fill="#FBC300"/>
</svg>
