<svg width="72" height="72" viewBox="0 0 72 72" fill="none" xmlns="http://www.w3.org/2000/svg">
<path d="M36.0001 72C40.8665 72 45.4728 71.0552 49.8191 69.1656C54.1653 67.2759 58.0039 64.6775 61.3347 61.3704C64.6655 58.0633 67.2758 54.2364 69.1654 49.8896C71.0551 45.5434 71.9999 40.9136 71.9999 36.0004C71.9999 31.0397 71.0669 26.386 69.201 22.0392C67.335 17.693 64.7485 13.8663 61.4414 10.5592C58.1343 7.25208 54.3073 4.66555 49.9606 2.79962C45.6143 0.933204 40.9608 0 36.0001 0C31.0869 0 26.4569 0.933204 22.1101 2.79962C17.7638 4.66555 13.9371 7.26393 10.63 10.5947C7.32295 13.9256 4.72451 17.7522 2.83473 22.0748C0.944987 26.3978 0.00012207 31.0397 0.00012207 36.0004C0.00012207 40.961 0.944987 45.6145 2.83473 49.9608C4.72451 54.307 7.32295 58.1337 10.63 61.4408C13.9371 64.7479 17.7638 67.3347 22.1101 69.2011C26.4569 71.067 31.0869 72 36.0001 72Z" fill="#8AA000"/>
<path d="M31.6766 57.1898C31.1096 57.1898 30.4955 57.0717 29.8341 56.8356C29.1728 56.5991 28.6058 56.221 28.1332 55.7014L14.5269 40.749C14.2908 40.4655 14.09 40.0522 13.9246 39.5089C13.7591 38.9656 13.6764 38.4339 13.6764 37.9138C13.6764 36.6386 14.1016 35.5757 14.9521 34.7253C15.8026 33.8748 16.842 33.4495 18.0703 33.4495C18.826 33.4495 19.4873 33.6031 20.0543 33.9103C20.6213 34.2175 21.0937 34.5838 21.4715 35.009L31.5351 45.8512L50.1725 19.9144C51.1173 18.5913 52.3693 17.9297 53.9285 17.9297C55.1094 17.9297 56.1488 18.3549 57.0467 19.2054C57.9441 20.0559 58.3928 21.0953 58.3928 22.3236C58.3928 22.7014 58.3104 23.1267 58.1454 23.5993C57.9799 24.0715 57.7318 24.5439 57.4009 25.0166L35.4327 55.5599C34.6296 56.6465 33.3776 57.1898 31.6766 57.1898Z" fill="white"/>
</svg>
