<svg width="31" height="31" viewBox="0 0 31 31" fill="none" xmlns="http://www.w3.org/2000/svg">
<path d="M15.039 30.0781C17.0934 30.0781 19.0274 29.6849 20.8408 28.8985C22.6544 28.1122 24.2541 27.026 25.64 25.64C27.026 24.2541 28.1122 22.6544 28.8985 20.8408C29.6849 19.0274 30.0781 17.0934 30.0781 15.039C30.0781 12.9847 29.6849 11.0507 28.8985 9.2372C28.1122 7.42368 27.026 5.82394 25.64 4.43798C24.2541 3.05204 22.6519 1.96589 20.8334 1.17953C19.015 0.393177 17.0786 0 15.0243 0C12.9699 0 11.036 0.393177 9.22247 1.17953C7.40893 1.96589 5.81165 3.05204 4.43062 4.43798C3.04958 5.82394 1.96589 7.42368 1.17953 9.2372C0.393177 11.0507 0 12.9847 0 15.039C0 17.0934 0.393177 19.0274 1.17953 20.8408C1.96589 22.6544 3.05204 24.2541 4.43798 25.64C5.82394 27.026 7.42368 28.1122 9.2372 28.8985C11.0507 29.6849 12.9847 30.0781 15.039 30.0781Z" fill="black" fill-opacity="0.85"/>
<path d="M10.085 21.2316C9.7508 21.2316 9.46574 21.1111 9.22983 20.8703C8.99393 20.6295 8.87598 20.342 8.87598 20.0079C8.87598 19.6736 8.99393 19.3885 9.22983 19.1526L13.3287 15.0538L9.22983 10.9696C8.99393 10.7239 8.87598 10.4388 8.87598 10.1145C8.87598 9.77045 8.99393 9.48294 9.22983 9.25195C9.46574 9.02096 9.7508 8.90546 10.085 8.90546C10.4094 8.90546 10.6944 9.0185 10.9401 9.24458L15.0538 13.3434L19.1968 9.22983C19.4327 8.99393 19.7129 8.87598 20.0373 8.87598C20.3715 8.87598 20.6565 8.99393 20.8925 9.22983C21.1284 9.46574 21.2464 9.7508 21.2464 10.085C21.2464 10.4192 21.1284 10.7092 20.8925 10.9549L16.7789 15.0538L20.8777 19.1379C21.1136 19.3541 21.2316 19.6441 21.2316 20.0079C21.2316 20.342 21.1136 20.6295 20.8777 20.8703C20.6418 21.1111 20.3519 21.2316 20.0079 21.2316C19.654 21.2316 19.364 21.1136 19.1379 20.8777L15.0538 16.7789L10.9844 20.8777C10.7386 21.1136 10.4389 21.2316 10.085 21.2316Z" fill="white"/>
</svg>
